{"title":"Rihanna ft. Drake - Work (Explicit) 2016","uid":13690146,"size":173663145,"categoryP":"video","categoryS":"music_videos","magnet":"?xt=urn:btih:392a4cf1bcb51c970a1f5f3eb3fa1f511aa33e24&amp;dn=Rihanna+ft.+Drake+-+Work+%28Explicit%29+2016&amp;tr=udp%3A%2F%2Ftracker.leechers-paradise.org%3A6969&amp;tr=udp%3A%2F%2Fzer0day.ch%3A1337&amp;tr=udp%3A%2F%2Fopen.demonii.com%3A1337&amp;tr=udp%3A%2F%2Ftracker.coppersurfer.tk%3A6969&amp;tr=udp%3A%2F%2Fexodus.desync.com%3A6969","seeders":35,"leechers":1,"uploader":"MeRaDil","files":1,"time":1456600671,"description":"RIHANNA ft. DRAKE - WORK\r\n\r\n \nhttp://gifyu.com/images/Rihanna-Work1.png\r\n \nhttp://gifyu.com/images/Rihanna-Work2.png\r\n\r\n\r\nMEDIA INFO\r\nGeneral\r\nRihanna ft. Drake - Work (Explicit)\r\nFormat                                   : MPEG-4\r\nFormat profile                           : Base Media\r\nCodec ID                                 : isom (isom/iso2/avc1/mp41)\r\nFile size                                : 166 MiB\r\nDuration                                 : 7mn 34s\r\nOverall bit rate                         : 3 059 Kbps\r\nMusicVid name                            : Work\r\nAlbum                                    : Anti\r\nPerformer                                : Rihanna ft. Drake\r\nGenre                                    : RnB/Dancehall\r\nContentType                              : Music Video\r\nRecorded date                            : 2016\r\nMake                                     : MeRaDil\r\nCover                                    : Yes\r\nComment                                  : Explicit\r\nRelease time                             : USA . february 22 . 2016\r\n \nhttp://gifyu.com/images/Rihanna-Work.png\r\n\r\nVideo\r\nID                                       : 1\r\nFormat                                   : AVC\r\nFormat/Info                              : Advanced Video Codec\r\nFormat profile                           :   \r\nFormat settings, CABAC                   : Yes\r\nFormat settings, ReFrames                : 2 frames\r\nCodec ID                                 : avc1\r\nCodec ID/Info                            : Advanced Video Coding\r\nDuration                                 : 7mn 34s\r\nBit rate                                 : 2 790 Kbps\r\nWidth                                    : 1 920 pixels\r\nHeight                                   : 1 080 pixels\r\nDisplay aspect ratio                     : 16:9\r\nFrame rate mode                          : Variable\r\nFrame rate                               : 23.976 (24000/1001) fps\r\nColor space                              : YUV\r\nChroma subsampling                       : 4:2:0\r\nBit depth                                : 8 bits\r\nScan type                                : Progressive\r\nBits/(Pixel*Frame)                       : 0.056\r\nStream size                              : 151 MiB (91%)\r\n\r\nAudio\r\nID                                       : 2\r\nFormat                                   : AAC\r\nFormat/Info                              : Advanced Audio Codec\r\nFormat profile                           : LC\r\nCodec ID                                 : 40\r\nDuration                                 : 7mn 34s\r\nBit rate mode                            : Constant\r\nBit rate                                 : 256 Kbps\r\nChannel(s)                               : 2 channels\r\nChannel positions                        : Front: L R\r\nSampling rate                            : 44.1 KHz\r\nFrame rate                               : 43.066 fps (1024 spf)\r\nCompression mode                         : Lossy\r\nStream size                              : 13.9 MiB (8%)","torrent":{"xt":"urn:btih:392a4cf1bcb51c970a1f5f3eb3fa1f511aa33e24","amp;dn":"Rihanna+ft.+Drake+-+Work+%28Explicit%29+2016","amp;tr":["udp%3A%2F%2Ftracker.leechers-paradise.org%3A6969","udp%3A%2F%2Fzer0day.ch%3A1337","udp%3A%2F%2Fopen.demonii.com%3A1337","udp%3A%2F%2Ftracker.coppersurfer.tk%3A6969","udp%3A%2F%2Fexodus.desync.com%3A6969"],"infoHash":"392a4cf1bcb51c970a1f5f3eb3fa1f511aa33e24","infoHashBuffer":{"type":"Buffer","data":[57,42,76,241,188,181,28,151,10,31,95,62,179,250,31,81,26,163,62,36]},"announce":[],"urlList":[]}}